<?xml version="1.0" standalone="no"?>
<!DOCTYPE svg PUBLIC "-//W3C//DTD SVG 20010904//EN"
 "http://www.w3.org/TR/2001/REC-SVG-20010904/DTD/svg10.dtd">
<svg version="1.0" xmlns="http://www.w3.org/2000/svg"
 width="512.000000pt" height="512.000000pt" viewBox="0 0 512.000000 512.000000"
 preserveAspectRatio="xMidYMid meet">

<g transform="translate(0.000000,512.000000) scale(0.100000,-0.100000)"
fill="#000000" stroke="none">
<path d="M1830 4809 c-498 -56 -956 -335 -1234 -749 -393 -584 -393 -1333 -1
-1920 407 -609 1162 -890 1878 -699 147 40 360 133 460 202 l29 20 661 -660
c747 -746 689 -698 852 -698 76 0 99 4 145 26 70 33 136 99 169 169 22 46 26
69 26 145 0 163 47 105 -697 851 l-659 660 42 70 c119 195 202 447 229 693 15
133 8 343 -15 473 -136 760 -743 1330 -1510 1418 -104 11 -267 11 -375 -1z
m530 -162 c298 -72 538 -200 743 -396 170 -163 286 -330 372 -532 212 -502
149 -1086 -168 -1536 -79 -113 -257 -291 -370 -370 -181 -127 -421 -228 -642
-269 -149 -28 -422 -26 -571 4 -330 66 -588 204 -824 441 -228 229 -360 471
-432 793 -20 91 -23 129 -23 323 0 190 4 233 22 318 94 417 325 760 669 992
171 116 399 208 603 245 88 16 141 19 311 16 177 -3 219 -7 310 -29z m1175
-2757 l150 -150 -150 -150 -150 -150 -153 153 -152 152 80 68 c44 37 110 103
147 147 37 44 70 80 73 80 3 0 73 -68 155 -150z m682 -692 c237 -238 438 -447
447 -465 41 -81 7 -202 -72 -258 -55 -38 -149 -47 -208 -19 -26 11 -189 167
-472 448 l-432 431 147 147 c81 82 150 148 153 148 3 0 199 -195 437 -432z"/>
<path d="M1853 4460 c-285 -36 -559 -166 -770 -365 -559 -525 -576 -1400 -38
-1950 196 -201 473 -345 745 -390 122 -19 342 -19 456 0 497 86 918 448 1073
922 50 154 65 250 65 428 -1 179 -20 294 -75 452 -161 456 -558 794 -1040 888
-101 20 -317 27 -416 15z m402 -155 c249 -51 450 -160 630 -340 180 -180 285
-374 341 -630 21 -97 24 -348 5 -445 -93 -477 -441 -851 -909 -976 -131 -36
-381 -45 -517 -19 -749 139 -1194 902 -943 1615 63 177 151 316 292 456 191
192 414 306 681 349 111 18 308 13 420 -10z"/>
<path d="M1976 4039 c-17 -14 -26 -30 -26 -50 0 -49 26 -65 122 -72 228 -18
440 -128 581 -302 54 -67 139 -234 157 -310 6 -27 16 -89 21 -136 5 -47 11
-93 14 -102 10 -24 57 -40 87 -28 37 14 46 52 37 154 -39 431 -362 776 -795
852 -120 21 -166 19 -198 -6z"/>
</g>
</svg>
